<svg width="24" height="24" viewBox="0 0 24 24" fill="none" xmlns="http://www.w3.org/2000/svg">
<path d="M10.7555 4.97626L3.76885 17.0766C3.64265 17.2951 3.5762 17.543 3.57617 17.7953C3.57615 18.0477 3.64256 18.2956 3.76872 18.5141C3.89488 18.7326 4.07635 18.9141 4.29489 19.0403C4.51343 19.1664 4.76132 19.2328 5.01366 19.2328H18.9858C19.2381 19.2328 19.486 19.1664 19.7046 19.0403C19.9231 18.9141 20.1046 18.7326 20.2307 18.5141C20.3569 18.2956 20.4233 18.0477 20.4233 17.7953C20.4233 17.543 20.3568 17.2951 20.2306 17.0766L13.2447 4.97626C13.1186 4.75778 12.9372 4.57636 12.7187 4.45023C12.5002 4.32409 12.2524 4.25769 12.0001 4.25769C11.7478 4.25769 11.5 4.32409 11.2815 4.45023C11.063 4.57636 10.8816 4.75778 10.7555 4.97626Z" fill="#EE404C"/>
<path d="M12.0914 8.70825H11.9091C11.4604 8.70825 11.0967 9.07199 11.0967 9.52069V13.404C11.0967 13.8527 11.4604 14.2164 11.9091 14.2164H12.0914C12.5401 14.2164 12.9038 13.8527 12.9038 13.404V9.52069C12.9038 9.07199 12.5401 8.70825 12.0914 8.70825Z" fill="white"/>
<path d="M12.0002 17.2963C12.4993 17.2963 12.9038 16.8918 12.9038 16.3928C12.9038 15.8937 12.4993 15.4892 12.0002 15.4892C11.5012 15.4892 11.0967 15.8937 11.0967 16.3928C11.0967 16.8918 11.5012 17.2963 12.0002 17.2963Z" fill="white"/>
</svg>
